<svg width="43" height="47" viewBox="0 0 43 47" fill="none" xmlns="http://www.w3.org/2000/svg">
<g clip-path="url(#clip0_2_4172)">
<path fill-rule="evenodd" clip-rule="evenodd" d="M23.3034 6.82422C23.1555 6.42437 23.3734 6.11828 23.4044 5.78995C23.4225 5.59885 23.393 5.26417 23.2731 5.29724C22.4232 5.5322 21.62 4.57084 20.7754 5.21632C17.3471 7.83454 13.2705 9.33525 9.67056 11.6575C9.41717 11.8208 9.1537 11.9672 8.89875 12.1277C7.42595 13.0539 7.42624 13.0544 8.61086 14.2264C9.82974 15.4325 9.96878 15.4754 11.6279 14.7472C15.0748 13.2342 18.5141 11.7021 21.8706 9.99516C22.9176 9.46309 23.9082 8.82887 24.4139 7.69079C24.5495 7.38623 24.6596 7.05683 24.7029 6.7288C24.7406 6.44088 24.7416 6.06293 24.408 5.94438C24.0614 5.82149 24.0209 6.20342 23.8874 6.40865C23.7651 6.59628 23.6544 6.79647 23.3034 6.82422Z" fill="#737373"/>
<path fill-rule="evenodd" clip-rule="evenodd" d="M30.8118 22.8705C29.3651 22.5802 27.978 22.9096 26.598 23.3083C23.6014 24.1747 20.7637 25.5147 17.7361 26.2917C17.1508 26.442 17.085 26.7065 17.4344 27.2671C18.4501 28.8956 19.9195 28.6753 21.387 28.2953C24.3329 27.5323 27.2568 26.6863 30.1935 25.89C30.9546 25.6836 31.7292 25.5263 32.5013 25.3622C32.9475 25.2669 33.098 24.9436 33.1704 24.5565C33.2452 24.1558 33.0246 23.99 32.6819 23.7983C32.0727 23.457 31.5118 23.0315 30.8118 22.8705Z" fill="#737373"/>
<path fill-rule="evenodd" clip-rule="evenodd" d="M26.8108 43.8511C28.3008 44.2503 29.7884 44.6563 31.2809 45.0446C31.756 45.1679 32.2578 45.2986 32.5703 44.7245C32.8553 44.2001 32.3608 44.0196 32.1387 43.7028C31.7103 43.0915 31.1211 42.7042 30.4614 42.4137C27.592 41.1488 24.6492 40.148 21.4866 39.9339C21.1444 39.9112 20.8021 39.8109 20.5592 40.1365C20.2845 40.5042 20.6565 40.724 20.7602 41.0222C21.2429 42.4149 22.4167 42.7299 23.6487 43.0192C24.7092 43.2687 25.7561 43.577 26.8087 43.8591L26.8108 43.8511Z" fill="#737373"/>
</g>
<defs>
<clipPath id="clip0_2_4172">
<rect width="33" height="38" fill="white" transform="matrix(-0.965926 -0.258819 -0.258819 0.965926 42.0743 9.34448)"/>
</clipPath>
</defs>
</svg>
