<svg width="29" height="41" viewBox="0 0 29 41" fill="none" xmlns="http://www.w3.org/2000/svg">
<g clip-path="url(#clip0_2_4164)">
<path fill-rule="evenodd" clip-rule="evenodd" d="M25.6509 32.3909H26.2296C26.3344 32.552 26.4437 32.7201 26.554 32.8903C26.6368 32.8156 26.6965 32.762 26.7866 32.681C27.001 32.8014 27.2228 32.9261 27.4405 33.0485C27.4677 33.2241 27.4909 33.3747 27.5149 33.532C27.6502 33.4555 27.7565 33.3949 27.8562 33.3382C27.9933 33.6227 28.1141 33.8726 28.2445 34.1432C28.2084 34.1552 28.1181 34.1859 27.9987 34.2263V34.6022C27.565 34.7511 27.236 35.1267 26.7447 34.9981C26.7161 35.3312 26.4115 35.4409 26.2181 35.484C25.7597 35.5858 25.3746 35.9472 24.9433 35.9557C24.44 35.9654 24.058 36.2421 23.6197 36.3672C23.0937 36.5175 22.5524 36.6781 22.0306 36.8793C21.5218 37.0754 20.9872 37.3317 20.4034 37.3131C19.4804 37.8484 18.408 37.9096 17.4136 38.2141C16.6391 38.4512 15.858 38.7467 15.0232 38.8078C14.7329 38.8292 14.456 39.1301 14.1533 38.6861C13.9331 39.0892 13.674 39.3118 13.2414 39.2973C12.9378 39.2874 12.6188 39.3594 12.3269 39.4561C11.5626 39.7082 10.7662 39.7886 9.98505 39.9492C9.26781 40.0968 8.53043 40.1477 7.82759 40.3032C6.88052 40.5128 5.9494 40.3662 5.01436 40.4258C4.84958 40.4363 4.68058 40.3026 4.50737 40.277C4.3197 40.2493 4.0754 40.3423 3.94617 40.2528C3.77838 40.1366 3.65427 40.2417 3.51751 40.2146C3.31568 40.1745 3.11716 40.1167 2.87647 40.0561C2.78791 39.9004 2.48969 39.8381 2.49029 39.5308C2.49059 39.4533 2.34298 39.3055 2.27039 39.3097C1.72033 39.3413 1.5929 38.8886 1.35492 38.5066C1.26275 37.7635 1.62453 37.2426 2.32129 36.9212C2.41287 36.8787 2.50987 36.8384 2.60837 36.8227C2.99516 36.7615 3.40785 36.7744 3.76482 36.6386C4.15734 36.4895 4.54051 36.5013 4.93483 36.491C5.31348 36.4813 5.75961 36.5892 6.05182 36.4248C6.37745 36.2413 6.78382 36.532 7.01728 36.1669C7.27392 36.4377 7.52701 36.0326 7.78272 36.163C8.05625 35.9277 8.39632 36.0542 8.69697 35.9862C8.97559 35.9232 9.26272 35.8867 9.53021 35.8166C10.4113 35.584 11.3039 35.4466 12.2046 35.3412C12.595 34.9996 13.1339 35.324 13.5532 35.0222C13.9132 34.7631 14.3955 34.8104 14.8133 34.7179C15.288 34.6128 15.7857 34.533 16.2737 34.4534C16.7295 34.379 17.1777 34.2534 17.6356 34.1682C18.3106 34.0425 18.9541 33.7501 19.6524 33.6982C19.9464 33.3515 20.4097 33.6507 20.7606 33.3864C21.0549 33.1645 21.4908 33.1265 21.8478 33.0693C22.7193 32.9298 23.4896 32.5051 24.3366 32.3207C24.5373 32.277 24.7376 32.2306 24.9698 32.1782C25.0005 32.3794 25.0237 32.53 25.0602 32.768C25.2653 32.6373 25.4292 32.5325 25.6509 32.3909Z" fill="#737373"/>
<path fill-rule="evenodd" clip-rule="evenodd" d="M11.9193 23.0493C11.8745 23.0942 11.8356 23.133 11.797 23.1719C11.6907 23.0077 11.5841 22.8438 11.4521 22.6405C11.4 22.7881 11.3666 22.8833 11.3129 23.0348C11.072 23.0053 10.746 23.0601 10.5759 22.9222C10.2996 22.6987 10.1188 23.0189 9.87906 22.9339C9.6616 22.8568 9.3456 22.9586 9.18742 22.8351C8.9296 22.6339 8.6696 22.7465 8.42167 22.683C8.17862 22.6209 7.94844 22.507 7.69447 22.4086C7.55862 22.4513 7.39811 22.5019 7.18692 22.5682C7.1077 22.4206 7.02937 22.2733 6.8917 22.0158C6.80766 22.2872 6.77964 22.3766 6.73476 22.5221C5.98137 22.0889 5.07826 22.3342 4.32426 21.9549C4.30528 21.8687 4.28841 21.7943 4.24443 21.5976C4.17756 21.7929 4.14954 21.8757 4.11641 21.9718C3.92543 21.9214 3.72088 21.8675 3.50821 21.8112C3.49405 21.6829 3.47989 21.5537 3.45911 21.3645C3.38079 21.4211 3.33289 21.4558 3.26059 21.5081C3.17113 21.4633 3.0681 21.4115 2.9226 21.3385C2.86657 21.4651 2.81838 21.5738 2.77199 21.6787C2.58883 21.5494 2.40508 21.4196 2.18788 21.2662C2.17945 21.1897 2.16529 21.0602 2.14662 20.8927C1.95774 20.9876 1.78815 21.0726 1.56945 21.1825C1.28177 20.7653 0.693448 20.5719 0.50879 20.011C0.5844 19.9275 0.637719 19.8688 0.69134 19.8101C0.534094 19.6529 0.461796 19.6965 0.294911 20.0502C0.241592 20.0538 0.187972 20.0619 0.135255 20.058C0.113567 20.0565 0.0936851 20.0288 0.0234965 19.9755C0.0747069 19.8579 0.131641 19.7275 0.194599 19.583C0.142184 19.4477 0.0819367 19.2923 0 19.0814C0.208757 19.1573 0.335879 19.2031 0.493728 19.2606C0.444024 19.0648 0.407273 18.9193 0.344615 18.6729C0.632599 18.803 0.811535 18.8841 1.01577 18.9763C0.96848 19.0344 0.923593 19.0892 0.869069 19.1561C1.01035 19.2278 1.15313 19.3007 1.32785 19.3899V18.8368C1.51432 18.7419 1.67247 18.6614 1.84267 18.5747C2.23217 18.7365 2.6289 18.9015 3.03406 19.0699C3.21511 18.9991 3.90916 19.0886 4.22364 19.2314C4.27908 19.1811 4.33631 19.129 4.42216 19.0513C4.58905 19.1308 4.7713 19.2175 4.96288 19.3088C4.90987 19.3691 4.86047 19.426 4.81076 19.4826C4.84721 19.5094 4.89691 19.5712 4.92433 19.5625C5.23762 19.4651 5.53222 19.2259 5.87322 19.5447C5.93648 19.6038 6.15789 19.495 6.3055 19.4612C6.98148 19.307 7.60204 19.4034 8.14786 19.8423C8.27527 19.8077 8.41535 19.7375 8.5536 19.7402C8.71658 19.7432 8.97658 19.8917 9.02415 19.8347C9.26967 19.5402 9.39767 19.899 9.58087 19.9011C9.75949 19.9035 9.92458 19.9137 10.1135 19.9995C10.433 20.1454 10.8111 20.1761 11.1689 20.2213C12.3721 20.3728 13.5466 20.6265 14.7079 20.9897C15.6044 21.2699 16.5177 21.5012 17.3796 21.8757C17.9601 22.1275 18.5911 22.3612 19.0472 22.7724C19.4593 23.1433 19.9473 23.4719 20.2687 24.0015C20.2236 24.0723 20.169 24.1582 20.1061 24.2572C20.141 24.2979 20.1901 24.3545 20.2468 24.4196C20.0534 24.6027 19.8569 24.7886 19.6361 24.9977C19.3852 24.9218 19.1231 24.8158 18.9761 24.4542C18.9451 24.6615 18.9228 24.8121 18.8984 24.9748H18.6644C18.6231 24.8675 18.5873 24.7733 18.5505 24.6769C18.4619 24.7332 18.3806 24.785 18.27 24.8555C18.1878 24.794 18.1062 24.7326 18.0263 24.6729C17.901 24.7889 17.7681 24.9127 17.6311 25.0395C17.4317 24.794 17.2928 24.5742 17.1063 24.4073C16.9253 24.2452 16.547 24.4018 16.4611 23.9852C16.4943 23.9337 16.5494 23.8485 16.6352 23.7156C16.4639 23.7069 16.3063 23.6987 16.0879 23.6876C16.1972 23.8102 16.2487 23.8683 16.3578 23.9913C16.15 23.9804 15.9776 24.0195 15.8607 23.9563C15.5842 23.8066 15.3007 23.727 14.9989 23.6452C14.7145 23.568 14.4419 23.5355 14.1564 23.5051C13.9024 23.478 13.6563 23.3812 13.4023 23.3521C13.1343 23.3216 12.8544 23.3689 12.5917 23.3183C12.3577 23.2734 12.1404 23.1414 11.9193 23.0493Z" fill="#737373"/>
<path fill-rule="evenodd" clip-rule="evenodd" d="M6.78607 2.58368V1.89324C7.06622 1.59803 7.38977 1.45434 7.87806 1.50254C7.92352 1.57845 8.00759 1.71853 8.10643 1.8839C8.64919 1.54983 8.85588 2.27491 9.28214 2.15984C9.89421 2.56531 10.3506 3.13043 10.9784 3.48438C11.0703 3.53619 11.1357 3.635 11.2125 3.71302C11.7525 4.26037 12.355 4.72819 12.9846 5.1704C13.4178 5.47496 13.8088 5.84397 14.195 6.20967C14.6165 6.60881 15.056 6.97572 15.5683 7.25316C15.6605 7.30316 15.7244 7.40468 15.8027 7.4812C16.1136 7.78574 16.3944 8.13366 16.7462 8.38072C17.0296 8.57919 17.239 8.84341 17.4899 9.06537C17.9237 9.44886 18.2843 9.91548 18.6714 10.3514C19.0609 10.79 19.4621 11.2201 19.8236 11.681C19.9742 11.8735 20.0354 12.1362 20.1414 12.376C19.8992 12.5881 19.6953 12.767 19.3808 13.043C19.1485 13.1742 19.032 12.7378 18.7576 12.6374C18.6674 12.7065 18.5867 12.7688 18.5316 12.811C18.2081 12.7441 17.9038 12.6812 17.4616 12.5896C16.5543 11.847 15.4976 11.0584 14.5104 10.1742C14.0413 9.75461 13.5115 9.3621 12.9458 9.0341C12.5415 8.7997 12.2258 8.41264 11.8595 8.10479C10.8889 7.2896 9.91385 6.45277 9.09356 5.49393C8.3233 4.59294 7.38068 3.82719 6.78607 2.58368Z" fill="#737373"/>
</g>
<defs>
<clipPath id="clip0_2_4164">
<rect width="28.3636" height="40" fill="white" transform="translate(0 0.803467)"/>
</clipPath>
</defs>
</svg>
