<svg width="24" height="25" viewBox="0 0 24 25" fill="none" xmlns="http://www.w3.org/2000/svg">
<path d="M9 2.40173C5.14585 2.40173 2 5.54758 2 9.40173C2 13.2559 5.14585 16.4017 9 16.4017C10.748 16.4017 12.345 15.7498 13.5742 14.683L14 15.1088V16.4017L20 22.4017L22 20.4017L16 14.4017H14.707L14.2812 13.976C15.348 12.7467 16 11.1497 16 9.40173C16 5.54758 12.8541 2.40173 9 2.40173ZM9 4.40173C11.7733 4.40173 14 6.62846 14 9.40173C14 12.175 11.7733 14.4017 9 14.4017C6.22673 14.4017 4 12.175 4 9.40173C4 6.62846 6.22673 4.40173 9 4.40173Z" fill="#0D0D0D"/>
</svg>
