<svg width="131" height="20" viewBox="0 0 131 20" fill="none" xmlns="http://www.w3.org/2000/svg">
<path fill-rule="evenodd" clip-rule="evenodd" d="M13.8928 2.1618C12.8115 2.16298 11.7763 2.07355 10.7366 1.83994C9.98657 1.67066 9.13349 1.6423 8.25749 1.71017C7.29599 1.78512 6.31593 1.5764 5.31693 1.65138C4.6999 1.69809 3.94487 1.38984 3.63661 2.13166C3.22176 2.17955 2.80691 2.22744 2.28525 2.28746C2.24827 2.61715 2.20781 2.9366 2.18074 3.25522C2.17492 3.32307 2.24125 3.44619 2.23016 3.44939C1.33202 3.72041 1.53451 4.58904 0.707739 4.92478C0.258125 5.10725 -0.0533169 5.77119 0.221969 5.98305C0.778235 6.41112 0.528571 6.87115 0.418974 7.36795C0.850253 8.04818 1.61058 8.47297 2.52029 8.80598C3.41839 9.13504 4.23219 9.58785 5.14886 9.88416C7.00898 10.4861 8.90941 11.025 10.8003 11.5789C12.7517 12.1506 14.735 12.6563 16.7551 13.1057C18.5991 13.5163 20.4268 13.9634 22.2708 14.3771C23.3944 14.6291 24.5116 14.8958 25.6284 15.1628C25.6764 15.1742 25.6874 15.2558 25.7776 15.4129C25.3351 15.4097 24.9019 15.311 24.6115 15.4286C24.2295 15.5826 23.9554 15.7536 23.6197 15.4707C23.1666 15.9413 22.4467 15.3388 21.9845 15.7737C21.575 15.6086 21.0548 15.635 20.6906 15.7346C20.2627 15.8509 19.9606 16.0229 19.5377 15.7827C19.4184 15.7146 18.9734 15.787 18.8804 15.8908C18.474 16.3452 17.9953 15.8345 17.6223 16.036C17.1712 16.2799 16.8032 16.2781 16.463 15.9841C15.8164 16.2261 15.1499 16.0573 14.4911 16.126C13.9236 16.1856 13.2749 16.2581 12.7977 16.1095C12.4917 16.0137 12.3215 16.0131 12.0494 16.0846C11.1612 16.3168 10.2622 16.1477 9.35828 16.2504C8.44682 16.3542 7.51315 16.2597 6.58777 16.2614C5.42464 16.2633 4.26077 16.2701 3.09642 16.2816C2.3976 16.2886 2.01601 16.6946 1.76848 17.0728C1.58071 17.3597 1.59427 17.6624 1.0205 17.6907C0.944243 17.6948 0.86722 18.0183 0.752799 18.282C1.08569 18.2666 1.37544 18.2529 1.66649 18.239C1.67191 18.2965 1.67811 18.354 1.68308 18.4118C1.44077 18.47 1.1989 18.5279 0.921623 18.5948C0.954208 18.6561 0.966759 18.7918 1.06176 18.8378C1.28949 18.9472 1.54229 19.0643 1.80848 19.0906C3.30006 19.2384 4.78871 19.4162 6.29544 19.4787C8.83119 19.5841 11.3768 19.6507 13.9253 19.6567C15.6688 19.6611 17.4191 19.6346 19.1641 19.6069C20.7344 19.5822 22.3269 19.5072 23.9001 19.4526C25.9176 19.3826 27.9271 19.261 29.9388 19.1134C31.2177 19.0196 32.4944 18.8876 33.7724 18.7707C34.6176 18.693 35.1869 18.2252 35.8456 17.8831C36.1247 17.46 36.0499 17.0014 36.587 16.5699C37.1982 16.0779 37.1896 13.9894 36.7511 13.3747C36.4264 12.9197 35.7278 12.704 35.1654 12.4069C34.1807 11.8863 33.1202 11.4873 31.9076 11.3065C31.7769 11.2868 31.5825 11.2358 31.5562 11.1648C31.3398 10.575 30.4163 10.8492 30.0187 10.4937C29.0915 10.5923 28.3125 10.274 27.478 10.1105C27.335 10.0824 27.1023 10.1256 27.0419 10.0628C26.2546 9.23733 24.8858 9.29647 23.7721 8.97263C23.4248 8.87153 23.0371 8.82989 22.7119 8.70319C22.4877 8.6164 22.3399 8.43062 22.1584 8.28904C22.3231 8.17213 22.4025 8.07333 22.4674 8.07569C23.8457 8.12378 25.219 8.24329 26.6002 8.22567C28.3989 8.20214 30.1702 8.39381 31.9882 8.24475C32.8571 8.17395 33.7262 8.34521 34.6295 8.31706C36.2944 8.26481 37.9559 8.46843 39.6172 8.37938C42.4715 8.22577 45.2964 8.5479 48.1552 8.1959C49.2848 8.5016 50.5089 8.15757 51.6663 8.30633C51.9782 8.34674 52.3288 8.25676 52.661 8.24287C53.1437 8.22246 53.6263 8.20919 54.1079 8.20592C56.0484 8.19241 57.988 8.18834 59.9283 8.17178C60.7474 8.16431 61.5703 8.11486 62.3882 8.1186C64.6975 8.129 67.0106 8.00509 69.3223 7.93389C70.5249 7.89668 71.7186 8.00827 72.9185 7.74161C74.2419 8.05468 75.6259 7.76645 76.9803 7.75636C78.6178 7.74381 80.259 7.6853 81.8992 7.63896C84.0176 7.5791 86.1359 7.51491 88.2545 7.44591C89.5995 7.40178 90.945 7.35019 92.2906 7.29364C93.9219 7.22497 95.5523 7.11441 97.1857 7.06985C99.6687 7.00174 102.156 6.8157 104.642 6.67046C107.745 6.48937 110.848 6.31065 113.951 6.10803C115.66 5.99642 117.369 5.84769 119.077 5.69913C121.111 5.52218 123.148 5.35677 125.178 5.13133C126.642 4.9686 128.094 4.74339 129.572 4.68281C129.933 4.66783 130.298 4.30156 130.807 4.01522C130.529 3.94257 130.362 3.86431 130.183 3.85828C129.646 3.83967 129.104 3.84922 128.465 3.84737C129.071 3.04977 130.488 3.58463 130.921 2.85007C130.53 2.81596 130.109 2.77942 129.689 2.74288C129.684 2.66397 129.68 2.58536 129.675 2.50651C129.993 2.4119 130.31 2.31753 130.732 2.19202C130.474 1.83088 130.221 1.47799 129.873 0.993117C129.389 0.992268 128.606 0.832641 128.009 1.03033C127.285 1.27036 126.565 0.836509 125.899 1.28154C125.725 1.39747 125.405 0.869971 125.054 1.23897C124.677 1.63504 124.412 0.908431 124.058 1.24561C123.727 1.56031 123.324 1.1862 123.225 1.24589C122.599 1.6216 121.989 1.27213 121.378 1.37532C120.725 1.48515 120.046 1.52841 119.386 1.52792C118.796 1.52771 118.25 1.55576 117.702 1.78039C117.509 1.85991 117.109 1.88882 117.011 1.80437C116.682 1.52189 116.464 1.71561 116.137 1.82611C115.901 1.90558 115.537 1.73193 115.288 1.8023C114.997 1.88463 114.77 2.08605 114.571 1.77093C113.683 2.21815 112.651 1.49098 111.772 2.09631C111.686 2.15507 111.47 2.16779 111.357 2.13348C110.037 1.7316 108.648 2.08149 107.29 2.11041C105.31 2.15276 103.331 2.19158 101.353 2.24384C99.765 2.28592 98.1768 2.32066 96.5886 2.40745C95.7447 2.45356 94.8452 2.19098 94.0546 2.7153C94.0002 2.75141 93.8392 2.74727 93.7716 2.71418C92.4175 2.05143 90.9651 2.93374 89.579 2.76943C89.3468 2.74162 89.0724 2.82097 88.8592 2.76945C86.959 2.30911 84.9473 2.73826 82.9995 2.63444C81.5697 2.55834 80.1041 2.68145 78.6564 2.69569C76.8595 2.71369 75.0647 2.70686 73.2687 2.72077C73.0878 2.72224 72.9003 2.78641 72.7197 2.83152C71.2439 3.20131 69.7591 2.99406 68.2778 3.0827C67.9515 3.10194 67.5672 3.04172 67.3054 2.9146C66.7087 2.62481 65.983 2.71945 65.4898 2.89722C64.9647 3.08748 64.5486 3.06779 64.0645 3.05319C63.1117 3.02445 62.1253 3.14033 61.2487 2.80414C59.6967 2.93316 58.1483 2.84965 56.6144 2.83517C55.351 2.82279 54.0419 2.99959 52.7879 2.73166C51.9646 2.5564 51.0596 2.73332 50.2362 2.92998C49.8925 3.01185 49.5904 3.11739 49.2535 3.05331C48.8899 2.98445 48.5341 2.7972 48.1824 2.82467C47.7967 2.85507 47.5027 2.78689 47.1523 2.73389C46.1677 2.58474 45.1408 2.48271 44.1827 2.99742C44.1061 3.0385 44.0039 3.07432 43.9161 3.07529C43.2836 3.08121 42.6407 3.12371 42.0239 3.06319C41.3068 2.99359 40.5191 3.08743 39.8991 2.73189C39.8317 2.6932 39.7049 2.70502 39.6044 2.7025C38.7735 2.68235 37.9429 2.6545 37.1106 2.64915C36.2773 2.64399 35.492 2.47854 34.6148 2.54746C33.8126 2.61105 32.9732 2.57999 32.1477 2.61883C31.6767 2.65943 31.0844 2.84914 30.758 2.71189C29.7704 2.29651 28.6015 2.92684 27.6676 2.47162C26.6542 2.80093 25.6767 2.40251 24.6719 2.53379C24.3917 2.57046 24.0544 2.68006 23.8382 2.61004C22.6717 2.23127 21.3268 2.66355 20.168 2.30361C19.3111 2.60236 18.5341 2.38417 17.709 2.27803C17.0891 2.19805 16.3954 2.35352 15.7349 2.40443C15.2444 1.93667 14.4871 2.3036 13.8928 2.1618Z" fill="#737373"/>
</svg>
